<?xml version="1.0" encoding="UTF-8"?>
<svg id="Capa_1" data-name="Capa 1" xmlns="http://www.w3.org/2000/svg" viewBox="0 0 540.96 540.96">
  <defs>
    <style>
      .cls-1 {
        fill: none;
        stroke-width: 4px;
      }

      .cls-1, .cls-2, .cls-3, .cls-4 {
        stroke: #1d1d1b;
        stroke-miterlimit: 10;
      }

      .cls-5, .cls-6, .cls-7, .cls-8, .cls-9, .cls-3, .cls-4 {
        fill: #1d1d1b;
      }

      .cls-6 {
        font-family: Castellar, Castellar;
      }

      .cls-6, .cls-8 {
        font-size: 7.18px;
      }

      .cls-7 {
        font-family: Bahnschrift, Bahnschrift;
        font-size: 24px;
        font-variation-settings: 'wght' 400, 'wdth' 100;
      }

      .cls-10, .cls-2 {
        fill: #fff;
      }

      .cls-8, .cls-9 {
        font-family: Algerian, Algerian;
      }

      .cls-9 {
        font-size: 6.23px;
      }

      .cls-2, .cls-3 {
        stroke-width: 2px;
      }
    </style>
  </defs>
  <path class="cls-5" d="M97.63,315.06l-55.73,51.61c-7.68,7.11-2.65,19.96,7.82,19.96h442.73c10.32,0,15.43-12.54,8.04-19.75l-52.91-51.61c-2.15-2.1-5.03-3.27-8.04-3.27H105.45c-2.9,0-5.69,1.09-7.82,3.06Z"/>
  <polygon class="cls-10" points="212.88 342.64 200.94 368.71 342.73 368.71 330.79 342.64 212.88 342.64"/>
  <rect class="cls-5" x="99.44" y="95.57" width="342.07" height="200" rx="14.32" ry="14.32"/>
  <rect class="cls-10" x="117.5" y="111.99" width="305.97" height="167.16"/>
  <circle class="cls-1" cx="270.48" cy="270.48" r="268.48"/>
  <path class="cls-5" d="M321.24,171.9c-4.2,4.75-7.36,9.49-9.49,14.21-2.13,4.72-4.64,12.53-7.54,23.44l-7.84,29.36.91,3.63,5.57,5.13h-20.65l5.93-5.13-8.02-29.87-7.79,29.22,7.79,9.6h-23.15l-.91-1.26h21.56l-6.79-8.06,8.56-31.87-1.49-5.54-9.29,34.9.72,2.89,5.3,5.13h-20.7l6.16-5.13-13.18-48.79-6.79-5.87h22.15l-6.21,5.87,10.37,38.4,1.59-5.64-8.74-32.06,4.12-3.77,1.04.75-3.76,3.45,7.93,29.31,9.69-36.3h4.26l11.78,43.89,1.45-5.27-10.42-38.63h1.27l9.74,36.3,4.26-15.75c2.66-9.88,3.99-16.31,3.99-19.29,0-3.32-1.51-5.93-4.53-7.83,3.53-1.15,7.32-2.72,11.37-4.71,4.05-1.99,7.07-3.77,9.06-5.36l.72.65ZM323.95,175.45c-3.62,4.1-6.61,8.73-8.95,13.89-2.34,5.16-4.73,12.36-7.18,21.62l-8.02,30.1,8.7,10.44h-23.24l-1.04-1.26h21.52l-7.34-8.71,8.33-31.22c2.48-9.26,4.85-16.38,7.11-21.36,2.26-4.99,5.28-9.75,9.06-14.28l1.04.79Z"/>
  <path class="cls-3" d="M223.5,200.04c-.44.03-.88.07-1.32.09-.58-6.81-2.08-13.87-4.56-20.99-5.4-15.48-14.58-28.83-25.67-38.65,3.77-1.68,7.86-3.13,12.21-4.27,7.98,11.29,13.89,25.07,16.62,40.21,1.46,8.11,1.9,16.02,1.42,23.54.43.02.86.06,1.29.07Z"/>
  <path class="cls-2" d="M286.69,163.43c0,20.27-26.55,36.69-59.3,36.69-1.3,0-2.59-.02-3.87-.09h-.03c-.43-.01-.86-.05-1.29-.07.48-7.52.04-15.43-1.42-23.54-2.74-15.14-8.65-28.92-16.62-40.21-1.3-1.85-2.66-3.64-4.08-5.35,8.17-2.64,17.46-4.12,27.31-4.12,32.75,0,59.3,16.43,59.3,36.68Z"/>
  <text class="cls-7" transform="translate(234.13 168.17) scale(1.11 1)"><tspan x="0" y="0">&lt;/&gt;</tspan></text>
  <text class="cls-6" transform="translate(223.5 366.84) scale(1.05 1)"><tspan x="0" y="0">Neyzer</tspan></text>
  <text class="cls-6" transform="translate(284.23 366.84) scale(1.05 1)"><tspan x="0" y="0">Bellorin</tspan></text>
  <line class="cls-4" x1="271.83" y1="359.27" x2="271.83" y2="366.98"/>
  <text class="cls-9" transform="translate(248.71 265.39) scale(1.11 1)"><tspan x="0" y="0">Desarrollo</tspan></text>
  <line class="cls-4" x1="233.14" y1="267.35" x2="310.53" y2="267.35"/>
  <text class="cls-8" transform="translate(262.41 275.27) scale(1.05 1)"><tspan x="0" y="0">Web</tspan></text>
</svg>